<?xml version="1.0" encoding="UTF-8"?>
<svg width="128" height="128" viewBox="0 0 128 128" xmlns="http://www.w3.org/2000/svg">
  <defs>
    <linearGradient id="gradient" x1="0%" y1="0%" x2="100%" y2="100%">
      <stop offset="0%" style="stop-color:#4A9EFF;stop-opacity:1" />
      <stop offset="100%" style="stop-color:#1B74E4;stop-opacity:1" />
    </linearGradient>
  </defs>
  
  <!-- Background circle -->
  <circle cx="64" cy="64" r="60" fill="url(#gradient)" stroke="#0B5394" stroke-width="2"/>
  
  <!-- Music note symbol -->
  <path d="M45 35 L45 85 Q45 95 55 95 Q65 95 65 85 L65 45 L85 40 L85 80 Q85 90 95 90 Q105 90 105 80 Q105 70 95 70 Q85 70 85 80 L85 40 L65 45 L65 85 Q65 75 55 75 Q45 75 45 85 Z" 
          fill="white" stroke="none"/>
  
  <!-- Streaming waves -->
  <path d="M35 50 Q25 55 25 64 Q25 73 35 78" 
        fill="none" stroke="white" stroke-width="3" stroke-linecap="round" opacity="0.8"/>
  <path d="M30 45 Q15 52 15 64 Q15 76 30 83" 
        fill="none" stroke="white" stroke-width="2" stroke-linecap="round" opacity="0.6"/>
  <path d="M25 40 Q5 49 5 64 Q5 79 25 88" 
        fill="none" stroke="white" stroke-width="1" stroke-linecap="round" opacity="0.4"/>
</svg> 